General
Unique ID                                : 289286129033012075159313410795350438220 (0xD9A27B59DEAD21C09DE12446199EB14C)
Complete name                            : Mission.Impossible.II.2000.UHD.BluRay.2160p.TrueHD.5.1.DV.HEVC.REMUX-FraMeSToR.mkv
Format                                   : Matroska
Format version                           : Version 4
File size                                : 51.5 GiB
Duration                                 : 2 h 3 min
Overall bit rate mode                    : Variable
Overall bit rate                         : 59.7 Mb/s
Movie name                               : Mission: Impossible II (2000) DV
Encoded date                             : UTC 2021-03-05 13:10:10
Writing application                      : mkvmerge v54.0.0 ('F Maj Pixie') 64-bit
Writing library                          : libebml v1.4.2 + libmatroska v1.6.3
IMDB                                     : tt0120755
TMDB                                     : movie/955

Video
ID                                       : 1
ID in the original source medium         : 4113 (0x1011)
Format                                   : HEVC
Format/Info                              : High Efficiency Video Coding
Format profile                           : Main 10@L5.1@High
HDR format                               : Dolby Vision, Version 1.0, dvhe.07.06, BL+EL+RPU, Blu-ray compatible / SMPTE ST 2086, HDR10 compatible
Codec ID                                 : V_MPEGH/ISO/HEVC
Duration                                 : 2 h 3 min
Bit rate                                 : 54.3 Mb/s
Width                                    : 3 840 pixels
Height                                   : 2 160 pixels
Display aspect ratio                     : 16:9
Frame rate mode                          : Constant
Frame rate                               : 23.976 (24000/1001) FPS
Color space                              : YUV
Chroma subsampling                       : 4:2:0 (Type 2)
Bit depth                                : 10 bits
Bits/(Pixel*Frame)                       : 0.273
Stream size                              : 46.9 GiB (91%)
Default                                  : Yes
Forced                                   : No
Color range                              : Limited
Color primaries                          : BT.2020
Transfer characteristics                 : PQ
Matrix coefficients                      : BT.2020 non-constant
Mastering display color primaries        : Display P3
Mastering display luminance              : min: 0.0001 cd/m2, max: 1000 cd/m2
Original source medium                   : Blu-ray

Audio #1
ID                                       : 2
Format                                   : MLP FBA
Format/Info                              : Meridian Lossless Packing FBA
Commercial name                          : Dolby TrueHD
Codec ID                                 : A_TRUEHD
Duration                                 : 2 h 3 min
Bit rate mode                            : Variable
Bit rate                                 : 3 490 kb/s
Maximum bit rate                         : 5 205 kb/s
Channel(s)                               : 6 channels
Channel layout                           : L R C LFE Ls Rs
Sampling rate                            : 48.0 kHz
Frame rate                               : 1 200.000 FPS (40 SPF)
Compression mode                         : Lossless
Stream size                              : 3.01 GiB (6%)
Title                                    : TrueHD 5.1
Language                                 : English
Default                                  : Yes
Forced                                   : No

Audio #2
ID                                       : 3
Format                                   : AC-3
Format/Info                              : Audio Coding 3
Commercial name                          : Dolby Digital
Codec ID                                 : A_AC3
Duration                                 : 2 h 3 min
Bit rate mode                            : Constant
Bit rate                                 : 640 kb/s
Channel(s)                               : 6 channels
Channel layout                           : L R C LFE Ls Rs
Sampling rate                            : 48.0 kHz
Frame rate                               : 31.250 FPS (1536 SPF)
Compression mode                         : Lossy
Stream size                              : 566 MiB (1%)
Title                                    : AC-3 5.1
Language                                 : English
Service kind                             : Complete Main
Default                                  : No
Forced                                   : No

Audio #3
ID                                       : 4
Format                                   : AC-3
Format/Info                              : Audio Coding 3
Commercial name                          : Dolby Digital
Codec ID                                 : A_AC3
Duration                                 : 2 h 3 min
Bit rate mode                            : Constant
Bit rate                                 : 192 kb/s
Channel(s)                               : 2 channels
Channel layout                           : L R
Sampling rate                            : 48.0 kHz
Frame rate                               : 31.250 FPS (1536 SPF)
Compression mode                         : Lossy
Stream size                              : 170 MiB (0%)
Title                                    : Commentary by Director John Woo
Language                                 : English
Service kind                             : Complete Main
Default                                  : No
Forced                                   : No

Text #1
ID                                       : 5
Format                                   : PGS
Codec ID                                 : S_HDMV/PGS
Codec ID/Info                            : Picture based subtitle format used on BDs/HD-DVDs
Duration                                 : 1 h 57 min
Bit rate                                 : 22.4 kb/s
Count of elements                        : 1872
Stream size                              : 18.9 MiB (0%)
Title                                    : English
Language                                 : English
Default                                  : No
Forced                                   : No

Text #2
ID                                       : 6
Format                                   : PGS
Codec ID                                 : S_HDMV/PGS
Codec ID/Info                            : Picture based subtitle format used on BDs/HD-DVDs
Duration                                 : 1 h 58 min
Bit rate                                 : 24.7 kb/s
Count of elements                        : 2128
Stream size                              : 20.9 MiB (0%)
Title                                    : English (SDH)
Language                                 : English
Default                                  : No
Forced                                   : No

Text #3
ID                                       : 7
Format                                   : PGS
Codec ID                                 : S_HDMV/PGS
Codec ID/Info                            : Picture based subtitle format used on BDs/HD-DVDs
Duration                                 : 2 h 3 min
Bit rate                                 : 10.1 kb/s
Count of elements                        : 1666
Stream size                              : 8.87 MiB (0%)
Title                                    : Arabic
Language                                 : Arabic
Default                                  : No
Forced                                   : No

Text #4
ID                                       : 8
Format                                   : PGS
Codec ID                                 : S_HDMV/PGS
Codec ID/Info                            : Picture based subtitle format used on BDs/HD-DVDs
Duration                                 : 2 h 3 min
Bit rate                                 : 14.0 kb/s
Count of elements                        : 1840
Stream size                              : 12.3 MiB (0%)
Title                                    : Chinese (Cantonese)
Language                                 : Chinese
Default                                  : No
Forced                                   : No

Text #5
ID                                       : 9
Format                                   : PGS
Codec ID                                 : S_HDMV/PGS
Codec ID/Info                            : Picture based subtitle format used on BDs/HD-DVDs
Duration                                 : 2 h 3 min
Bit rate                                 : 14.2 kb/s
Count of elements                        : 1672
Stream size                              : 12.5 MiB (0%)
Title                                    : Chinese (Mandarin Simplified)
Language                                 : Chinese
Default                                  : No
Forced                                   : No

Text #6
ID                                       : 10
Format                                   : PGS
Codec ID                                 : S_HDMV/PGS
Codec ID/Info                            : Picture based subtitle format used on BDs/HD-DVDs
Duration                                 : 2 h 3 min
Bit rate                                 : 13.8 kb/s
Count of elements                        : 1674
Stream size                              : 12.2 MiB (0%)
Title                                    : Chinese (Mandarin Traditional)
Language                                 : Chinese
Default                                  : No
Forced                                   : No

Text #7
ID                                       : 11
Format                                   : PGS
Codec ID                                 : S_HDMV/PGS
Codec ID/Info                            : Picture based subtitle format used on BDs/HD-DVDs
Duration                                 : 2 h 3 min
Bit rate                                 : 20.0 kb/s
Count of elements                        : 1888
Stream size                              : 17.6 MiB (0%)
Title                                    : Czech
Language                                 : Czech
Default                                  : No
Forced                                   : No

Text #8
ID                                       : 12
Format                                   : PGS
Codec ID                                 : S_HDMV/PGS
Codec ID/Info                            : Picture based subtitle format used on BDs/HD-DVDs
Duration                                 : 2 h 3 min
Bit rate                                 : 21.3 kb/s
Count of elements                        : 1924
Stream size                              : 18.7 MiB (0%)
Title                                    : Danish
Language                                 : Danish
Default                                  : No
Forced                                   : No

Text #9
ID                                       : 13
Format                                   : PGS
Codec ID                                 : S_HDMV/PGS
Codec ID/Info                            : Picture based subtitle format used on BDs/HD-DVDs
Duration                                 : 2 h 3 min
Bit rate                                 : 19.2 kb/s
Count of elements                        : 1670
Stream size                              : 16.9 MiB (0%)
Title                                    : Dutch
Language                                 : Dutch
Default                                  : No
Forced                                   : No

Text #10
ID                                       : 14
Format                                   : PGS
Codec ID                                 : S_HDMV/PGS
Codec ID/Info                            : Picture based subtitle format used on BDs/HD-DVDs
Duration                                 : 2 h 3 min
Bit rate                                 : 20.8 kb/s
Count of elements                        : 1952
Stream size                              : 18.3 MiB (0%)
Title                                    : Estonian
Language                                 : Estonian
Default                                  : No
Forced                                   : No

Text #11
ID                                       : 15
Format                                   : PGS
Codec ID                                 : S_HDMV/PGS
Codec ID/Info                            : Picture based subtitle format used on BDs/HD-DVDs
Duration                                 : 2 h 3 min
Bit rate                                 : 21.2 kb/s
Count of elements                        : 1930
Stream size                              : 18.6 MiB (0%)
Title                                    : Finnish
Language                                 : Finnish
Default                                  : No
Forced                                   : No

Text #12
ID                                       : 16
Format                                   : PGS
Codec ID                                 : S_HDMV/PGS
Codec ID/Info                            : Picture based subtitle format used on BDs/HD-DVDs
Duration                                 : 2 h 3 min
Bit rate                                 : 22.5 kb/s
Count of elements                        : 1926
Stream size                              : 19.8 MiB (0%)
Title                                    : French
Language                                 : French
Default                                  : No
Forced                                   : No

Text #13
ID                                       : 17
Format                                   : PGS
Codec ID                                 : S_HDMV/PGS
Codec ID/Info                            : Picture based subtitle format used on BDs/HD-DVDs
Duration                                 : 1 h 57 min
Bit rate                                 : 23.9 kb/s
Count of elements                        : 1924
Stream size                              : 20.2 MiB (0%)
Title                                    : German
Language                                 : German
Default                                  : No
Forced                                   : No

Text #14
ID                                       : 18
Format                                   : PGS
Codec ID                                 : S_HDMV/PGS
Codec ID/Info                            : Picture based subtitle format used on BDs/HD-DVDs
Duration                                 : 2 h 3 min
Bit rate                                 : 22.1 kb/s
Count of elements                        : 1938
Stream size                              : 19.5 MiB (0%)
Title                                    : Greek
Language                                 : Greek
Default                                  : No
Forced                                   : No

Text #15
ID                                       : 19
Format                                   : PGS
Codec ID                                 : S_HDMV/PGS
Codec ID/Info                            : Picture based subtitle format used on BDs/HD-DVDs
Duration                                 : 2 h 3 min
Bit rate                                 : 13.6 kb/s
Count of elements                        : 1884
Stream size                              : 12.0 MiB (0%)
Title                                    : Hebrew
Language                                 : Hebrew
Default                                  : No
Forced                                   : No

Text #16
ID                                       : 20
Format                                   : PGS
Codec ID                                 : S_HDMV/PGS
Codec ID/Info                            : Picture based subtitle format used on BDs/HD-DVDs
Duration                                 : 2 h 3 min
Bit rate                                 : 19.9 kb/s
Count of elements                        : 1886
Stream size                              : 17.5 MiB (0%)
Title                                    : Hungarian
Language                                 : Hungarian
Default                                  : No
Forced                                   : No

Text #17
ID                                       : 21
Format                                   : PGS
Codec ID                                 : S_HDMV/PGS
Codec ID/Info                            : Picture based subtitle format used on BDs/HD-DVDs
Duration                                 : 2 h 3 min
Bit rate                                 : 20.4 kb/s
Count of elements                        : 1666
Stream size                              : 17.9 MiB (0%)
Title                                    : Icelandic
Language                                 : Icelandic
Default                                  : No
Forced                                   : No

Text #18
ID                                       : 22
Format                                   : PGS
Codec ID                                 : S_HDMV/PGS
Codec ID/Info                            : Picture based subtitle format used on BDs/HD-DVDs
Duration                                 : 2 h 2 min
Bit rate                                 : 24.0 kb/s
Count of elements                        : 1926
Stream size                              : 21.1 MiB (0%)
Title                                    : Indonesian
Language                                 : Indonesian
Default                                  : No
Forced                                   : No

Text #19
ID                                       : 23
Format                                   : PGS
Codec ID                                 : S_HDMV/PGS
Codec ID/Info                            : Picture based subtitle format used on BDs/HD-DVDs
Duration                                 : 2 h 3 min
Bit rate                                 : 20.5 kb/s
Count of elements                        : 1926
Stream size                              : 18.0 MiB (0%)
Title                                    : Italian
Language                                 : Italian
Default                                  : No
Forced                                   : No

Text #20
ID                                       : 24
Format                                   : PGS
Codec ID                                 : S_HDMV/PGS
Codec ID/Info                            : Picture based subtitle format used on BDs/HD-DVDs
Duration                                 : 1 h 58 min
Bit rate                                 : 15.3 kb/s
Count of elements                        : 1780
Stream size                              : 12.9 MiB (0%)
Title                                    : Japanese
Language                                 : Japanese
Default                                  : No
Forced                                   : No

Text #21
ID                                       : 25
Format                                   : PGS
Codec ID                                 : S_HDMV/PGS
Codec ID/Info                            : Picture based subtitle format used on BDs/HD-DVDs
Duration                                 : 2 h 3 min
Bit rate                                 : 12.3 kb/s
Count of elements                        : 1664
Stream size                              : 10.8 MiB (0%)
Title                                    : Korean
Language                                 : Korean
Default                                  : No
Forced                                   : No

Text #22
ID                                       : 26
Format                                   : PGS
Codec ID                                 : S_HDMV/PGS
Codec ID/Info                            : Picture based subtitle format used on BDs/HD-DVDs
Duration                                 : 2 h 3 min
Bit rate                                 : 20.6 kb/s
Count of elements                        : 1942
Stream size                              : 18.1 MiB (0%)
Title                                    : Latvian
Language                                 : Latvian
Default                                  : No
Forced                                   : No

Text #23
ID                                       : 27
Format                                   : PGS
Codec ID                                 : S_HDMV/PGS
Codec ID/Info                            : Picture based subtitle format used on BDs/HD-DVDs
Duration                                 : 2 h 3 min
Bit rate                                 : 21.3 kb/s
Count of elements                        : 1960
Stream size                              : 18.8 MiB (0%)
Title                                    : Lithuanian
Language                                 : Lithuanian
Default                                  : No
Forced                                   : No

Text #24
ID                                       : 28
Format                                   : PGS
Codec ID                                 : S_HDMV/PGS
Codec ID/Info                            : Picture based subtitle format used on BDs/HD-DVDs
Duration                                 : 2 h 3 min
Bit rate                                 : 19.7 kb/s
Count of elements                        : 1928
Stream size                              : 17.3 MiB (0%)
Title                                    : Norwegian
Language                                 : Norwegian
Default                                  : No
Forced                                   : No

Text #25
ID                                       : 29
Format                                   : PGS
Codec ID                                 : S_HDMV/PGS
Codec ID/Info                            : Picture based subtitle format used on BDs/HD-DVDs
Duration                                 : 2 h 3 min
Bit rate                                 : 24.2 kb/s
Count of elements                        : 1932
Stream size                              : 21.3 MiB (0%)
Title                                    : Malay
Language                                 : Malay
Default                                  : No
Forced                                   : No

Text #26
ID                                       : 30
Format                                   : PGS
Codec ID                                 : S_HDMV/PGS
Codec ID/Info                            : Picture based subtitle format used on BDs/HD-DVDs
Duration                                 : 2 h 3 min
Bit rate                                 : 20.0 kb/s
Count of elements                        : 1866
Stream size                              : 17.6 MiB (0%)
Title                                    : Polish
Language                                 : Polish
Default                                  : No
Forced                                   : No

Text #27
ID                                       : 31
Format                                   : PGS
Codec ID                                 : S_HDMV/PGS
Codec ID/Info                            : Picture based subtitle format used on BDs/HD-DVDs
Duration                                 : 2 h 3 min
Bit rate                                 : 20.3 kb/s
Count of elements                        : 1880
Stream size                              : 17.9 MiB (0%)
Title                                    : Portuguese (Brazilian)
Language                                 : Portuguese
Default                                  : No
Forced                                   : No

Text #28
ID                                       : 32
Format                                   : PGS
Codec ID                                 : S_HDMV/PGS
Codec ID/Info                            : Picture based subtitle format used on BDs/HD-DVDs
Duration                                 : 2 h 3 min
Bit rate                                 : 21.1 kb/s
Count of elements                        : 1934
Stream size                              : 18.6 MiB (0%)
Title                                    : Portuguese (Iberian)
Language                                 : Portuguese
Default                                  : No
Forced                                   : No

Text #29
ID                                       : 33
Format                                   : PGS
Codec ID                                 : S_HDMV/PGS
Codec ID/Info                            : Picture based subtitle format used on BDs/HD-DVDs
Duration                                 : 2 h 3 min
Bit rate                                 : 19.0 kb/s
Count of elements                        : 1666
Stream size                              : 16.8 MiB (0%)
Title                                    : Romanian
Language                                 : Romanian
Default                                  : No
Forced                                   : No

Text #30
ID                                       : 34
Format                                   : PGS
Codec ID                                 : S_HDMV/PGS
Codec ID/Info                            : Picture based subtitle format used on BDs/HD-DVDs
Duration                                 : 2 h 3 min
Bit rate                                 : 22.1 kb/s
Count of elements                        : 1874
Stream size                              : 19.4 MiB (0%)
Title                                    : Russian
Language                                 : Russian
Default                                  : No
Forced                                   : No

Text #31
ID                                       : 35
Format                                   : PGS
Codec ID                                 : S_HDMV/PGS
Codec ID/Info                            : Picture based subtitle format used on BDs/HD-DVDs
Duration                                 : 2 h 3 min
Bit rate                                 : 21.7 kb/s
Count of elements                        : 1932
Stream size                              : 19.1 MiB (0%)
Title                                    : Spanish (Castilian)
Language                                 : Spanish
Default                                  : No
Forced                                   : No

Text #32
ID                                       : 36
Format                                   : PGS
Codec ID                                 : S_HDMV/PGS
Codec ID/Info                            : Picture based subtitle format used on BDs/HD-DVDs
Duration                                 : 1 h 57 min
Bit rate                                 : 23.3 kb/s
Count of elements                        : 1894
Stream size                              : 19.6 MiB (0%)
Title                                    : Spanish (Latin American)
Language                                 : Spanish
Default                                  : No
Forced                                   : No

Text #33
ID                                       : 37
Format                                   : PGS
Codec ID                                 : S_HDMV/PGS
Codec ID/Info                            : Picture based subtitle format used on BDs/HD-DVDs
Duration                                 : 2 h 3 min
Bit rate                                 : 14.7 kb/s
Count of elements                        : 1778
Stream size                              : 12.9 MiB (0%)
Title                                    : Thai
Language                                 : Thai
Default                                  : No
Forced                                   : No

Text #34
ID                                       : 38
Format                                   : PGS
Codec ID                                 : S_HDMV/PGS
Codec ID/Info                            : Picture based subtitle format used on BDs/HD-DVDs
Duration                                 : 2 h 3 min
Bit rate                                 : 18.9 kb/s
Count of elements                        : 1874
Stream size                              : 16.7 MiB (0%)
Title                                    : Turkish
Language                                 : Turkish
Default                                  : No
Forced                                   : No

Text #35
ID                                       : 39
Format                                   : PGS
Codec ID                                 : S_HDMV/PGS
Codec ID/Info                            : Picture based subtitle format used on BDs/HD-DVDs
Duration                                 : 1 h 58 min
Bit rate                                 : 42.7 kb/s
Count of elements                        : 2636
Stream size                              : 36.3 MiB (0%)
Title                                    : English (Commentary)
Language                                 : English
Default                                  : No
Forced                                   : No

Text #36
ID                                       : 40
Format                                   : PGS
Codec ID                                 : S_HDMV/PGS
Codec ID/Info                            : Picture based subtitle format used on BDs/HD-DVDs
Duration                                 : 2 h 3 min
Bit rate                                 : 36.0 kb/s
Count of elements                        : 2518
Stream size                              : 31.7 MiB (0%)
Title                                    : French (Commentary)
Language                                 : French
Default                                  : No
Forced                                   : No

Text #37
ID                                       : 41
Format                                   : PGS
Codec ID                                 : S_HDMV/PGS
Codec ID/Info                            : Picture based subtitle format used on BDs/HD-DVDs
Duration                                 : 1 h 58 min
Bit rate                                 : 43.9 kb/s
Count of elements                        : 2512
Stream size                              : 37.3 MiB (0%)
Title                                    : German (Commentary)
Language                                 : German
Default                                  : No
Forced                                   : No

Text #38
ID                                       : 42
Format                                   : PGS
Codec ID                                 : S_HDMV/PGS
Codec ID/Info                            : Picture based subtitle format used on BDs/HD-DVDs
Duration                                 : 2 h 3 min
Bit rate                                 : 35.3 kb/s
Count of elements                        : 2514
Stream size                              : 31.1 MiB (0%)
Title                                    : Italian (Commentary)
Language                                 : Italian
Default                                  : No
Forced                                   : No

Text #39
ID                                       : 43
Format                                   : PGS
Codec ID                                 : S_HDMV/PGS
Codec ID/Info                            : Picture based subtitle format used on BDs/HD-DVDs
Duration                                 : 1 h 58 min
Bit rate                                 : 35.0 kb/s
Count of elements                        : 2798
Stream size                              : 29.7 MiB (0%)
Title                                    : Japanese (Commentary)
Language                                 : Japanese
Default                                  : No
Forced                                   : No

Text #40
ID                                       : 44
Format                                   : PGS
Codec ID                                 : S_HDMV/PGS
Codec ID/Info                            : Picture based subtitle format used on BDs/HD-DVDs
Duration                                 : 2 h 3 min
Bit rate                                 : 23.6 kb/s
Count of elements                        : 2640
Stream size                              : 20.8 MiB (0%)
Title                                    : Korean (Commentary)
Language                                 : Korean
Default                                  : No
Forced                                   : No

Text #41
ID                                       : 45
Format                                   : PGS
Codec ID                                 : S_HDMV/PGS
Codec ID/Info                            : Picture based subtitle format used on BDs/HD-DVDs
Duration                                 : 2 h 3 min
Bit rate                                 : 36.7 kb/s
Count of elements                        : 2514
Stream size                              : 32.4 MiB (0%)
Title                                    : Portuguese (Brazilian) (Commentary)
Language                                 : Portuguese
Default                                  : No
Forced                                   : No

Text #42
ID                                       : 46
Format                                   : PGS
Codec ID                                 : S_HDMV/PGS
Codec ID/Info                            : Picture based subtitle format used on BDs/HD-DVDs
Duration                                 : 2 h 3 min
Bit rate                                 : 36.5 kb/s
Count of elements                        : 2514
Stream size                              : 32.2 MiB (0%)
Title                                    : Spanish (Castilian) (Commentary)
Language                                 : Spanish
Default                                  : No
Forced                                   : No

Text #43
ID                                       : 47
Format                                   : PGS
Codec ID                                 : S_HDMV/PGS
Codec ID/Info                            : Picture based subtitle format used on BDs/HD-DVDs
Duration                                 : 2 h 3 min
Bit rate                                 : 39.5 kb/s
Count of elements                        : 2640
Stream size                              : 34.8 MiB (0%)
Title                                    : Spanish (Latin American) (Commentary)
Language                                 : Spanish
Default                                  : No
Forced                                   : No

Menu
00:00:00.000                             : en:Old Friend
00:05:57.023                             : en:Holiday
00:10:39.347                             : en:I See You Found It
00:18:03.499                             : en:Catch Me
00:23:47.426                             : en:Sean Ambrose
00:34:47.961                             : en:A Proper Welcome
00:45:40.237                             : en:Don't Turn Around
00:56:08.574                             : en:A Touch of the Flu
01:05:07.862                             : en:Biocyte
01:11:39.128                             : en:The Last Strain
01:18:24.992                             : en:I Guess I Lied
01:26:00.322                             : en:Supply and Demand
01:35:40.443                             : en:Smile
01:40:17.136                             : en:Race Against Time
01:49:34.026                             : en:Mano a Mano
01:53:59.458                             : en:Destroyed By Fire
01:58:58.882                             : en:End Credits
